<svg width="1000" height="400" viewBox="0 0 500 200" xmlns="http://www.w3.org/2000/svg"><defs><pattern id="H1qC9oOi" patternUnits="userSpaceOnUse" width="10" height="10"><rect width="10" height="10" fill="#343434"></rect><path d="M5,0l0,10" stroke="darkorange" stroke-width="1" stroke-linecap="square"></path><path d="M0,10l10,-10M-2.5,2.5l5,-5M7.5,12.5l5,-5" stroke="darkorange" stroke-width="1" stroke-linecap="square"></path></pattern><pattern id="BJec09sds" patternUnits="userSpaceOnUse" width="15" height="15"><circle cx="7.5" cy="7.5" r="2" fill="#545454" stroke="#343434" stroke-width="1"></circle><circle r="2" fill="#545454" stroke="#343434" stroke-width="1"></circle><circle cy="15" r="2" fill="#545454" stroke="#343434" stroke-width="1"></circle><circle cx="15" cy="15" r="2" fill="#545454" stroke="#343434" stroke-width="1"></circle><circle cx="15" r="2" fill="#545454" stroke="#343434" stroke-width="1"></circle></pattern><pattern id="H1Z5Rqius" patternUnits="userSpaceOnUse" width="10" height="10"><rect width="10" height="10" fill="#c0392b"></rect><path d="M2.5,2.5l5,0l0,5l-5,0z" fill="none" stroke="#fff" stroke-width="1" stroke-linecap="square"></path></pattern><pattern id="BJGq09sus" patternUnits="userSpaceOnUse" width="15" height="15"><path d="M0,3.75l3.75,0l0,-3.75M11.25,15l0,-3.75l3.75,0M3.75,7.5l0,3.75l3.75,0M7.5,3.75l3.75,0l0,3.75" fill="none" stroke="#343434" stroke-width="1" stroke-linecap="square"></path></pattern><pattern id="H1Q9AciOs" patternUnits="userSpaceOnUse" width="10" height="10"><rect width="10" height="10" fill="#2980b9"></rect><path d="M0,5c1.25,-2.5,3.75,-2.5,5,0c1.25,2.5,3.75,2.5,5,0" fill="none" stroke="#fff" stroke-width="1" stroke-linecap="square"></path></pattern><pattern id="HJV905jus" patternUnits="userSpaceOnUse" width="10" height="10"><rect width="10" height="10" fill="#2980b9"></rect><path d="M2.5,2.5l5,5M7.5,2.5l5,-5M2.5,7.5l-5,5M7.5,12.5l5,-5M-2.5,2.5l5,-5" fill="#545454" stroke="#fff" stroke-width="1" stroke-linecap="square"></path></pattern><pattern id="SkSqR9j_s" patternUnits="userSpaceOnUse" width="8" height="8"><rect width="8" height="8" fill="#343434"></rect><path d="M2,2l4,4M2,6l4,-4" fill="#545454" stroke="darkorange" stroke-width="0.6" stroke-linecap="square"></path></pattern><pattern id="Bk85Rqj_s" patternUnits="userSpaceOnUse" width="7" height="7"><path d="M1.75,5.25l1.75,-3.5l1.75,3.5" fill="none" stroke="#343434" stroke-width="0.7" stroke-linecap="square"></path></pattern><pattern id="ryPqA5j_o" patternUnits="userSpaceOnUse" width="17.32" height="10"><rect width="17.32" height="10" fill="#343434"></rect><path d="M0,5l2.887,5l5.774,0l2.887,-5l-2.887,-5l-5.774,0l-2.887,5ZM11.547,5l5.774,0" fill="none" stroke="darkorange" stroke-width="1" stroke-linecap="square"></path></pattern><pattern id="HJ_cCcs_s" patternUnits="userSpaceOnUse" width="4" height="4"><path d="M0,2l4,0" stroke="#000" stroke-width="0.5" stroke-linecap="square"></path></pattern></defs><rect width="100" height="100" x="0" y="0" style="fill: url(#H1qC9oOi);"></rect><rect width="100" height="100" x="100" y="0" style="fill: url(#BJec09sds);"></rect><rect width="100" height="100" x="200" y="0" style="fill: url(#H1Z5Rqius);"></rect><rect width="100" height="100" x="300" y="0" style="fill: url(#BJGq09sus);"></rect><rect width="100" height="100" x="400" y="0" style="fill: url(#H1Q9AciOs);"></rect><rect width="100" height="100" x="0" y="100" style="fill: url(#HJV905jus);"></rect><rect width="100" height="100" x="100" y="100" style="fill: url(#SkSqR9j_s);"></rect><rect width="100" height="100" x="200" y="100" style="fill: url(#Bk85Rqj_s);"></rect><rect width="100" height="100" x="300" y="100" style="fill: url(#ryPqA5j_o);"></rect><rect width="100" height="100" x="400" y="100" style="fill: url(#HJ_cCcs_s);"></rect></svg>