<svg width="1000" height="600" viewBox="0 0 500 300" xmlns="http://www.w3.org/2000/svg"><defs><pattern id="Byz7Hq3s" width="8" height="8" patternUnits="userSpaceOnUse"><rect width="8" height="8" fill="#343434"></rect><path d="M4,0l0,8" stroke="#fdf5e6" stroke-width="0.7" stroke-linecap="square"></path><path d="M0,8l8,-8M-2,2l4,-4M6,10l4,-4" stroke="#fdf5e6" stroke-width="0.7" stroke-linecap="square"></path></pattern><pattern id="r1gfXS52s" width="15" height="15" patternUnits="userSpaceOnUse"><rect width="15" height="15" fill="#fdf5e6"></rect><circle cx="7.5" cy="7.5" r="3" fill="#c0392b" stroke="none" stroke-width="0"></circle><circle r="3" fill="#c0392b" stroke="none" stroke-width="0"></circle><circle cy="15" r="3" fill="#c0392b" stroke="none" stroke-width="0"></circle><circle cx="15" cy="15" r="3" fill="#c0392b" stroke="none" stroke-width="0"></circle><circle cx="15" r="3" fill="#c0392b" stroke="none" stroke-width="0"></circle></pattern><pattern id="S1bzQBq2i" width="10" height="10" patternUnits="userSpaceOnUse"><rect width="10" height="10" fill="#2980b9"></rect><path d="M2.5,2.5l5,0l0,5l-5,0z" fill="none" stroke="#fdf5e6" stroke-width="0.9" stroke-linecap="square"></path></pattern><pattern id="HJfMXS92j" width="15" height="15" patternUnits="userSpaceOnUse"><rect width="15" height="15" fill="#c0392b"></rect><path d="M0,3.75l3.75,0l0,-3.75M11.25,15l0,-3.75l3.75,0M3.75,7.5l0,3.75l3.75,0M7.5,3.75l3.75,0l0,3.75" fill="none" stroke="#343434" stroke-width="1" stroke-linecap="square"></path></pattern><pattern id="SJQfQS93j" width="8" height="8" patternUnits="userSpaceOnUse"><rect width="8" height="8" fill="#343434"></rect><path d="M0,4c1,-2,3,-2,4,0c1,2,3,2,4,0" fill="none" stroke="#fdf5e6" stroke-width="0.8" stroke-linecap="square"></path></pattern><pattern id="B14zQBqno" width="9" height="9" patternUnits="userSpaceOnUse"><rect width="9" height="9" fill="#fdf5e6"></rect><path d="M2.25,2.25l4.5,4.5M6.75,2.25l4.5,-4.5M2.25,6.75l-4.5,4.5M6.75,11.25l4.5,-4.5M-2.25,2.25l4.5,-4.5" fill="none" stroke="#c0392b" stroke-width="1" stroke-linecap="square"></path></pattern><pattern id="H1BfmS9hs" width="10" height="10" patternUnits="userSpaceOnUse"><rect width="10" height="10" fill="#2980b9"></rect><path d="M2.5,2.5l5,5M2.5,7.5l5,-5" fill="none" stroke="#fdf5e6" stroke-width="0.8" stroke-linecap="square"></path></pattern><pattern id="ByLf7Bcni" width="9" height="9" patternUnits="userSpaceOnUse"><rect width="9" height="9" fill="#c0392b"></rect><path d="M2.25,6.75l2.25,-4.5l2.25,4.5" fill="none" stroke="#343434" stroke-width="0.9" stroke-linecap="square"></path></pattern><pattern id="rJDz7H92j" width="17.32" height="10" patternUnits="userSpaceOnUse"><rect width="17.32" height="10" fill="#343434"></rect><path d="M0,5l2.887,5l5.774,0l2.887,-5l-2.887,-5l-5.774,0l-2.887,5ZM11.547,5l5.774,0" fill="none" stroke="#fdf5e6" stroke-width="1" stroke-linecap="square"></path></pattern><pattern id="BJOGmS53o" width="12" height="12" patternUnits="userSpaceOnUse"><rect width="12" height="12" fill="#fdf5e6"></rect><path d="M0,0l6,12l6,-12M0,12l6,-12l6,12" fill="none" stroke="#c0392b" stroke-width="0.9" stroke-linecap="square"></path></pattern><pattern id="SkKGmSqhs" width="21" height="14" patternUnits="userSpaceOnUse"><rect width="21" height="14" fill="#2980b9"></rect><path d="M5.25,0l0,3.5M15.75,0l0,3.5M0,3.5l0,7M10.5,3.5l0,7M21,3.5l0,7M5.25,10.5l0,3.5M15.75,10.5l0,3.5M0,3.5l5.25,-3.5l5.25,3.5l5.25,-3.5l5.25,3.5M0,7l5.25,-3.5l5.25,3.5l5.25,-3.5l5.25,3.5M0,7l5.25,3.5l5.25,-3.5l5.25,3.5l5.25,-3.5M0,10.5l5.25,3.5l5.25,-3.5l5.25,3.5l5.25,-3.5" fill="none" stroke="#fdf5e6" stroke-width="0.6" stroke-linecap="square"></path></pattern></defs><rect width="100" height="100" x="0" y="0" style="fill: url(#Byz7Hq3s);"></rect><rect width="100" height="100" x="100" y="0" style="fill: url(#r1gfXS52s);"></rect><rect width="100" height="100" x="200" y="0" style="fill: url(#S1bzQBq2i);"></rect><rect width="100" height="100" x="300" y="0" style="fill: url(#HJfMXS92j);"></rect><rect width="100" height="100" x="0" y="100" style="fill: url(#SJQfQS93j);"></rect><rect width="100" height="100" x="100" y="100" style="fill: url(#B14zQBqno);"></rect><rect width="100" height="100" x="200" y="100" style="fill: url(#H1BfmS9hs);"></rect><rect width="100" height="100" x="300" y="100" style="fill: url(#ByLf7Bcni);"></rect><rect width="100" height="100" x="0" y="200" style="fill: url(#rJDz7H92j);"></rect><rect width="100" height="100" x="100" y="200" style="fill: url(#BJOGmS53o);"></rect><rect width="100" height="100" x="200" y="200" style="fill: url(#SkKGmSqhs);"></rect></svg>