<svg width="1000" height="400" viewBox="0 0 500 200" xmlns="http://www.w3.org/2000/svg"><defs><pattern id="H1TM2a_o" patternUnits="userSpaceOnUse" width="10" height="10"><rect width="10" height="10" fill="#343434"></rect><path d="M5,0l0,10" stroke="#fdf5e6" stroke-width="1" stroke-linecap="square"></path><path d="M0,10l10,-10M-2.5,2.5l5,-5M7.5,12.5l5,-5" stroke="#fdf5e6" stroke-width="1" stroke-linecap="square"></path></pattern><pattern id="rJe6M3p_j" patternUnits="userSpaceOnUse" width="15" height="15"><rect width="15" height="15" fill="#fdf5e6"></rect><circle cx="7.5" cy="7.5" r="3" fill="#c0392b" stroke="#343434" stroke-width="0"></circle><circle r="3" fill="#c0392b" stroke="#343434" stroke-width="0"></circle><circle cy="15" r="3" fill="#c0392b" stroke="#343434" stroke-width="0"></circle><circle cx="15" cy="15" r="3" fill="#c0392b" stroke="#343434" stroke-width="0"></circle><circle cx="15" r="3" fill="#c0392b" stroke="#343434" stroke-width="0"></circle></pattern><pattern id="HJWpM2TOi" patternUnits="userSpaceOnUse" width="10" height="10"><rect width="10" height="10" fill="#2980b9"></rect><path d="M2.5,2.5l5,0l0,5l-5,0z" fill="none" stroke="#fdf5e6" stroke-width="0.9" stroke-linecap="square"></path></pattern><pattern id="Skzafh6us" patternUnits="userSpaceOnUse" width="15" height="15"><rect width="15" height="15" fill="#c0392b"></rect><path d="M0,3.75l3.75,0l0,-3.75M11.25,15l0,-3.75l3.75,0M3.75,7.5l0,3.75l3.75,0M7.5,3.75l3.75,0l0,3.75" fill="none" stroke="#343434" stroke-width="1" stroke-linecap="square"></path></pattern><pattern id="rkXpG3T_s" patternUnits="userSpaceOnUse" width="10" height="10"><rect width="10" height="10" fill="#343434"></rect><path d="M0,5c1.25,-2.5,3.75,-2.5,5,0c1.25,2.5,3.75,2.5,5,0" fill="none" stroke="#fdf5e6" stroke-width="1" stroke-linecap="square"></path></pattern><pattern id="BJNaz2TOo" patternUnits="userSpaceOnUse" width="10" height="10"><rect width="10" height="10" fill="#fdf5e6"></rect><path d="M2.5,2.5l5,5M7.5,2.5l5,-5M2.5,7.5l-5,5M7.5,12.5l5,-5M-2.5,2.5l5,-5" fill="#545454" stroke="#c0392b" stroke-width="1.2" stroke-linecap="square"></path></pattern><pattern id="SJBpzhTds" patternUnits="userSpaceOnUse" width="10" height="10"><rect width="10" height="10" fill="#2980b9"></rect><path d="M2.5,2.5l5,5M2.5,7.5l5,-5" fill="#545454" stroke="#fdf5e6" stroke-width="0.8" stroke-linecap="square"></path></pattern><pattern id="SJLpf3pdj" patternUnits="userSpaceOnUse" width="9" height="9"><rect width="9" height="9" fill="#c0392b"></rect><path d="M2.25,6.75l2.25,-4.5l2.25,4.5" fill="none" stroke="#343434" stroke-width="1" stroke-linecap="square"></path></pattern><pattern id="B1wpznadi" patternUnits="userSpaceOnUse" width="17.32" height="10"><rect width="17.32" height="10" fill="#343434"></rect><path d="M0,5l2.887,5l5.774,0l2.887,-5l-2.887,-5l-5.774,0l-2.887,5ZM11.547,5l5.774,0" fill="none" stroke="#fdf5e6" stroke-width="1" stroke-linecap="square"></path></pattern><pattern id="HkdaG3Tdi" patternUnits="userSpaceOnUse" width="21" height="14"><rect width="21" height="14" fill="#fdf5e6"></rect><path d="M5.25,0l0,3.5M15.75,0l0,3.5M0,3.5l0,7M10.5,3.5l0,7M21,3.5l0,7M5.25,10.5l0,3.5M15.75,10.5l0,3.5M0,3.5l5.25,-3.5l5.25,3.5l5.25,-3.5l5.25,3.5M0,7l5.25,-3.5l5.25,3.5l5.25,-3.5l5.25,3.5M0,7l5.25,3.5l5.25,-3.5l5.25,3.5l5.25,-3.5M0,10.5l5.25,3.5l5.25,-3.5l5.25,3.5l5.25,-3.5" fill="none" stroke="#c0392b" stroke-width="1" stroke-linecap="square"></path></pattern></defs><rect width="100" height="100" x="0" y="0" style="fill: url(#H1TM2a_o);"></rect><rect width="100" height="100" x="100" y="0" style="fill: url(#rJe6M3p_j);"></rect><rect width="100" height="100" x="200" y="0" style="fill: url(#HJWpM2TOi);"></rect><rect width="100" height="100" x="300" y="0" style="fill: url(#Skzafh6us);"></rect><rect width="100" height="100" x="400" y="0" style="fill: url(#rkXpG3T_s);"></rect><rect width="100" height="100" x="0" y="100" style="fill: url(#BJNaz2TOo);"></rect><rect width="100" height="100" x="100" y="100" style="fill: url(#SJBpzhTds);"></rect><rect width="100" height="100" x="200" y="100" style="fill: url(#SJLpf3pdj);"></rect><rect width="100" height="100" x="300" y="100" style="fill: url(#B1wpznadi);"></rect><rect width="100" height="100" x="400" y="100" style="fill: url(#HkdaG3Tdi);"></rect></svg>